<svg width="24" height="14" viewBox="0 0 24 14" fill="none" xmlns="http://www.w3.org/2000/svg">
<path d="M1.73715 0.324276C1.36396 -0.0828428 0.731394 -0.110346 0.324275 0.262847C-0.0828442 0.63604 -0.110347 1.26861 0.262845 1.67573L1.73715 0.324276ZM23.7372 1.67572C24.1103 1.26861 24.0828 0.636039 23.6757 0.262846C23.2686 -0.110347 22.636 -0.0828438 22.2628 0.324275L23.7372 1.67572ZM12 13L11.2628 13.6757C11.4523 13.8824 11.7197 14 12 14C12.2803 14 12.5477 13.8824 12.7372 13.6757L12 13ZM0.262845 1.67573L11.2628 13.6757L12.7372 12.3243L1.73715 0.324276L0.262845 1.67573ZM12.7372 13.6757L23.7372 1.67572L22.2628 0.324275L11.2628 12.3243L12.7372 13.6757Z" fill="#245983"/>
</svg>
