<svg width="91" height="91" fill="none" xmlns="http://www.w3.org/2000/svg"><g filter="url(#filter0_ii_305_10251)"><rect width="91" height="91" rx="45.5" fill="#89B172"/><path fill-rule="evenodd" clip-rule="evenodd" d="M35.216 20.656c2.161.828 3.73 2.791 4.502 5.774.222.86.451 1.727.681 2.598a324.26 324.26 0 011.135 4.38c.362 1.45.066 2.803-.412 3.96-.446 1.082-1.104 2.116-1.664 2.995l-.08.126c-.618.97-1.089 1.736-1.334 2.43-.226.64-.193 1.028-.013 1.364 2.032 3.786 4.792 6.553 8.568 8.59.33.179.715.212 1.35-.014.692-.245 1.455-.717 2.423-1.336l.126-.08c.877-.562 1.909-1.223 2.987-1.67 1.156-.479 2.508-.777 3.958-.413l7.215 1.808c2.974.746 4.915 2.317 5.687 4.506.745 2.108.267 4.414-.729 6.403-1.007 2.01-2.631 3.89-4.53 5.276-1.89 1.38-4.17 2.351-6.498 2.351-20.633 0-37.353-16.77-37.353-37.447 0-2.378.951-4.676 2.325-6.573 1.377-1.9 3.25-3.5 5.26-4.466 1.994-.958 4.296-1.366 6.396-.562zm-9.227 6.788c-1.108 1.53-1.754 3.226-1.754 4.813 0 19.028 15.384 34.447 34.353 34.447 1.511 0 3.183-.646 4.73-1.774 1.539-1.123 2.838-2.643 3.616-4.197.789-1.575.957-3 .582-4.06-.345-.98-1.288-2.018-3.588-2.595l-7.214-1.808c-.606-.152-1.268-.062-2.08.274-.828.344-1.662.877-2.617 1.488l-.028.018-.01.006c-.9.576-1.954 1.25-3.025 1.63-1.13.402-2.458.54-3.78-.173-4.294-2.316-7.477-5.508-9.787-9.812-.71-1.323-.572-2.65-.172-3.781.38-1.073 1.051-2.13 1.626-3.032l.006-.01.018-.028c.609-.957 1.141-1.794 1.484-2.625.336-.814.426-1.48.274-2.091a322.05 322.05 0 00-1.115-4.306c-.231-.875-.464-1.755-.694-2.646-.604-2.334-1.663-3.338-2.671-3.724-1.07-.41-2.48-.278-4.024.464-1.529.735-3.024 1.995-4.13 3.522z" fill="#fff"/></g><defs><filter id="filter0_ii_305_10251" x="0" y="-1" width="91" height="97" filterUnits="userSpaceOnUse" color-interpolation-filters="sRGB"><feFlood flood-opacity="0" result="BackgroundImageFix"/><feBlend in="SourceGraphic" in2="BackgroundImageFix" result="shape"/><feColorMatrix in="SourceAlpha" values="0 0 0 0 0 0 0 0 0 0 0 0 0 0 0 0 0 0 127 0" result="hardAlpha"/><feOffset dy="5"/><feGaussianBlur stdDeviation="5"/><feComposite in2="hardAlpha" operator="arithmetic" k2="-1" k3="1"/><feColorMatrix values="0 0 0 0 0.878431 0 0 0 0 0.870588 0 0 0 0 0.678431 0 0 0 1 0"/><feBlend in2="shape" result="effect1_innerShadow_305_10251"/><feColorMatrix in="SourceAlpha" values="0 0 0 0 0 0 0 0 0 0 0 0 0 0 0 0 0 0 127 0" result="hardAlpha"/><feOffset dy="-1"/><feGaussianBlur stdDeviation="5"/><feComposite in2="hardAlpha" operator="arithmetic" k2="-1" k3="1"/><feColorMatrix values="0 0 0 0 0.47451 0 0 0 0 0.470588 0 0 0 0 0.262745 0 0 0 1 0"/><feBlend in2="effect1_innerShadow_305_10251" result="effect2_innerShadow_305_10251"/></filter></defs></svg>