<svg width="30" height="30" fill="none" xmlns="http://www.w3.org/2000/svg"><path fill-rule="evenodd" clip-rule="evenodd" d="M8.565.3c1.336.512 2.294 1.722 2.763 3.533.133.515.27 1.035.408 1.557.23.875.463 1.757.681 2.63.224.899.04 1.733-.251 2.44-.271.656-.67 1.283-1.006 1.81l-.049.077c-.372.585-.648 1.034-.79 1.438-.13.367-.105.57-.014.737 1.21 2.255 2.851 3.901 5.1 5.114.165.09.364.115.73-.015.402-.142.85-.419 1.433-.792l.077-.049c.525-.336 1.15-.737 1.806-1.009.705-.292 1.539-.477 2.437-.252l4.329 1.085c1.807.453 3.005 1.413 3.482 2.767.46 1.3.163 2.713-.442 3.92-.611 1.221-1.597 2.362-2.748 3.202-1.146.836-2.534 1.43-3.958 1.43C10.117 29.922.04 19.815.04 7.353c0-1.453.58-2.852 1.414-4.002C2.29 2.199 3.426 1.228 4.648.64 5.86.059 7.271-.195 8.565.3zm-5.49 4.225c-.657.906-1.034 1.903-1.034 2.83 0 11.361 9.186 20.567 20.512 20.567.88 0 1.862-.376 2.779-1.045.911-.665 1.68-1.564 2.139-2.482.466-.931.557-1.756.345-2.358-.194-.548-.726-1.153-2.083-1.493l-4.33-1.085c-.334-.084-.709-.037-1.184.16-.49.203-.983.519-1.56.888l-.012.007-.01.007c-.537.343-1.178.753-1.831.985-.695.247-1.523.336-2.349-.11-2.594-1.399-4.518-3.329-5.913-5.928-.443-.827-.355-1.654-.11-2.35.232-.654.64-1.296.983-1.834l.007-.01.007-.013c.368-.578.684-1.073.886-1.564.197-.477.244-.854.16-1.193-.216-.864-.441-1.718-.669-2.58-.138-.526-.278-1.054-.416-1.59-.357-1.378-.976-1.95-1.542-2.166-.608-.233-1.424-.163-2.335.275-.902.433-1.786 1.179-2.44 2.082z" fill="#245983"/></svg>